<?xml version="1.0" encoding="utf-8"?>
<svg viewBox="0 0 320.98 86.39" color-interpolation-filters="sRGB" style="margin: auto;" xmlns="http://www.w3.org/2000/svg">
  <mask id="5c40c3f7-96e0-4d53-be2c-e0056d4a65a2">
    <g fill="#FFFFFF">
      <rect data-gra="graph-name-bg" stroke-width="2px" class="i-icon-bg" x="0" y="0" width="320.9803771972656" height="86.38177490234375" fill="#FFFFFF"/>
      <rect data-gra="graph-name-border" stroke="#000000" stroke-width="2px" x="5" y="5" fill-opacity="1" width="310.9803771972656" height="76.38177490234375" fill="#FFFFFF"/>
    </g>
    <g transform="translate(15,15)" fill="black">
      <g data-gra="path-name" fill-rule="" class="tp-name" transform="translate(0,0)">
        <g transform="scale(1)">
          <g>
            <path d="M36.29-8.86L36.29-8.86 36.29-5.71Q36.29-2.24 37.63-1.72L37.63-1.72Q37.76-1.61 37.75-1.39 37.73-1.18 37.57-1.07L37.57-1.07Q36.86-1.07 34.84-0.55L34.84-0.55Q29.39 0.9 24.8 0.9L24.8 0.9Q13.89 0.9 7.74-5.33L7.74-5.33Q2.57-10.5 2.57-18.02L2.57-18.02Q2.57-21.71 3.84-25.17 5.11-28.63 7.63-31.31L7.63-31.31Q13.89-37.84 25.38-37.84L25.38-37.84Q28.9-37.84 32.48-37.02L32.48-37.02Q35.44-36.42 35.96-36.5L35.96-36.5Q35.96-34.18 36.8-28.38L36.8-28.38Q36.7-28.05 36.11-28.01 35.52-27.97 35.27-28.22L35.27-28.22Q34.15-32.54 31.25-34.36 28.36-36.18 23.79-36.18L23.79-36.18Q20.62-36.18 18.01-35.3 15.39-34.43 13.59-32.92 11.79-31.42 10.55-29.35 9.32-27.29 8.75-24.95 8.18-22.61 8.18-20.04L8.18-20.04Q8.18-16.79 8.83-13.92 9.49-11.05 10.86-8.64 12.22-6.23 14.19-4.51 16.16-2.79 18.91-1.82 21.66-0.85 24.96-0.85L24.96-0.85Q27.48-0.85 29.07-1.3 30.65-1.75 31.14-2.52L31.14-2.52Q31.69-3.28 31.69-5.71L31.69-5.71 31.69-7.96Q31.69-9.3 31.68-9.98 31.66-10.66 31.51-11.35 31.36-12.03 31.19-12.29 31.01-12.55 30.53-12.82 30.05-13.1 29.53-13.18 29.01-13.26 28.05-13.37L28.05-13.37 25.59-13.67Q25.27-13.84 25.28-14.38 25.29-14.93 25.59-15.07L25.59-15.07Q28-14.9 33.61-14.9L33.61-14.9Q36.75-14.9 39.54-15.07L39.54-15.07Q39.84-14.9 39.85-14.41 39.87-13.92 39.59-13.67L39.59-13.67 38.69-13.56Q38.01-13.48 37.54-13.22 37.08-12.96 36.83-12.63 36.59-12.3 36.46-11.63 36.34-10.96 36.31-10.43 36.29-9.9 36.29-8.86ZM76.69-16.46L76.69-16.46 76.69-22.91Q76.69-32.65 75.62-34.51L75.62-34.51Q75.05-35.52 72.83-35.68L72.83-35.68 71.44-35.79Q71.19-36.09 71.25-36.53 71.3-36.97 71.55-37.13L71.55-37.13Q74.75-36.97 77.92-36.97L77.92-36.97Q80.76-36.97 83.8-37.13L83.8-37.13Q84.1-36.94 84.11-36.49 84.13-36.04 83.91-35.79L83.91-35.79 82.57-35.68Q81.53-35.6 80.78-35.23 80.02-34.86 79.78-34.32L79.78-34.32Q78.98-32.46 78.98-22.91L78.98-22.91 78.98-16.57Q78.98-7.38 75.07-3.2L75.07-3.2Q73.3-1.26 70.41-0.18 67.53 0.9 64.36 0.9L64.36 0.9Q57.49 0.9 53.91-2.19L53.91-2.19Q51.67-4.05 50.6-7.23 49.54-10.42 49.54-15.39L49.54-15.39 49.54-28.63Q49.54-29.91 49.52-30.61 49.51-31.31 49.47-32.14 49.43-32.98 49.34-33.37 49.26-33.77 49.08-34.23 48.91-34.7 48.67-34.88 48.44-35.05 48.07-35.26 47.7-35.46 47.25-35.55 46.8-35.63 46.17-35.68L46.17-35.68 44.78-35.79Q44.53-35.96 44.59-36.48 44.64-37 44.89-37.13L44.89-37.13Q49.07-36.97 51.83-36.97L51.83-36.97Q54.62-36.97 58.72-37.13L58.72-37.13Q58.97-37 59.02-36.48 59.08-35.96 58.83-35.79L58.83-35.79 57.49-35.68Q56.86-35.63 56.41-35.55 55.96-35.46 55.59-35.26 55.22-35.05 54.99-34.88 54.76-34.7 54.58-34.23 54.4-33.77 54.32-33.37 54.24-32.98 54.2-32.14 54.16-31.31 54.14-30.61 54.13-29.91 54.13-28.63L54.13-28.63 54.13-16.52Q54.13-13.02 54.72-10.36 55.3-7.71 56.59-5.69 57.88-3.66 60.1-2.61 62.33-1.56 65.48-1.56L65.48-1.56Q68.43-1.56 70.63-2.68 72.83-3.8 74.13-5.84 75.43-7.88 76.06-10.53 76.69-13.18 76.69-16.46ZM106.18-33.33L106.18-33.33 106.18-8.39Q106.18-6.67 106.19-5.82 106.21-4.98 106.33-4.05 106.45-3.12 106.63-2.76 106.81-2.41 107.22-2.05 107.63-1.7 108.15-1.59 108.67-1.48 109.54-1.39L109.54-1.39 111.32-1.23Q111.57-1.07 111.51-0.52 111.46 0.03 111.21 0.16L111.21 0.16Q106.4 0 103.88 0L103.88 0Q101.48 0 96.09 0.16L96.09 0.16Q95.82 0.03 95.8-0.49 95.79-1.01 96.09-1.23L96.09-1.23 98.11-1.39Q99.13-1.48 99.71-1.68 100.3-1.89 100.71-2.26 101.12-2.63 101.29-3.5 101.45-4.38 101.52-5.41 101.59-6.45 101.59-8.39L101.59-8.39 101.59-33.44Q101.59-34.73 101.37-34.97 101.15-35.22 99.89-35.22L99.89-35.22 96.83-35.22Q91.44-35.22 89.94-33.82L89.94-33.82Q89.31-33.25 88.82-32.54 88.32-31.83 88.08-31.36 87.83-30.9 87.42-29.97L87.42-29.97Q87.09-29.72 86.6-29.87 86.11-30.02 85.95-30.35L85.95-30.35Q87.29-34.13 88.08-38.69L88.08-38.69Q88.21-38.77 88.61-38.79 89.01-38.8 89.14-38.69L89.14-38.69Q89.23-38.2 89.51-37.86 89.8-37.52 90.12-37.34 90.43-37.16 91.1-37.08 91.77-37 92.21-36.98 92.64-36.97 93.57-36.97L93.57-36.97Q93.68-36.97 93.75-36.97 93.82-36.97 93.9-36.97L93.9-36.97 116.6-36.97Q118.92-36.97 119.62-37.21 120.32-37.46 120.95-38.53L120.95-38.53Q121.14-38.61 121.51-38.57 121.88-38.53 121.96-38.36L121.96-38.36Q121.49-36.7 121.23-33.93 120.97-31.17 121.11-29.86L121.11-29.86Q120.95-29.53 120.4-29.5 119.85-29.48 119.66-29.72L119.66-29.72Q119.28-33.09 118.27-33.82L118.27-33.82Q116.41-35.22 111.76-35.22L111.76-35.22 107.79-35.22Q106.56-35.22 106.37-34.99 106.18-34.75 106.18-33.33ZM130.67-8.5L130.67-8.5 130.67-28.44Q130.67-30.16 130.65-31.04 130.64-31.91 130.52-32.85 130.39-33.8 130.2-34.18 130.01-34.56 129.6-34.95 129.19-35.33 128.66-35.44 128.13-35.55 127.25-35.63L127.25-35.63 125.86-35.74Q125.61-35.9 125.66-36.45 125.72-37 125.96-37.13L125.96-37.13Q130.15-36.97 133.02-36.97L133.02-36.97Q135.78-36.97 139.96-37.13L139.96-37.13Q140.21-37 140.27-36.45 140.32-35.9 140.07-35.74L140.07-35.74 138.68-35.63Q137.8-35.55 137.27-35.44 136.74-35.33 136.33-34.95 135.92-34.56 135.73-34.18 135.54-33.8 135.41-32.85 135.29-31.91 135.28-31.04 135.26-30.16 135.26-28.44L135.26-28.44 135.26-8.5Q135.26-7.22 135.28-6.51 135.29-5.8 135.34-4.96 135.4-4.13 135.47-3.73 135.54-3.34 135.73-2.87 135.92-2.41 136.14-2.23 136.36-2.05 136.75-1.85 137.15-1.64 137.59-1.56 138.02-1.48 138.68-1.39L138.68-1.39 140.07-1.23Q140.32-1.07 140.27-0.52 140.21 0.03 139.96 0.16L139.96 0.16Q135.78 0 133.02 0L133.02 0Q130.15 0 125.96 0.16L125.96 0.16Q125.72 0.03 125.66-0.48 125.61-0.98 125.86-1.23L125.86-1.23 127.25-1.39Q127.91-1.48 128.34-1.56 128.78-1.64 129.18-1.85 129.57-2.05 129.79-2.23 130.01-2.41 130.2-2.87 130.39-3.34 130.46-3.73 130.53-4.13 130.59-4.96 130.64-5.8 130.65-6.51 130.67-7.22 130.67-8.5ZM150.59-8.39L150.59-8.39 150.59-29.67Q150.59-32.92 150.13-33.93 149.66-34.95 147.86-35.11L147.86-35.11 146.05-35.27Q145.72-35.52 145.75-36.01 145.78-36.5 146.11-36.67L146.11-36.67Q151.27-37.13 158.16-37.13L158.16-37.13Q164.45-37.13 167.57-35.55L167.57-35.55Q171.81-33.47 171.81-28.55L171.81-28.55Q171.81-25.73 170.35-23.95 168.88-22.18 166.09-20.89L166.09-20.89Q166.09-20.23 167.16-20.04L167.16-20.04Q168.39-19.82 169.63-19.17 170.88-18.51 172.04-17.43 173.2-16.35 173.94-14.59 174.68-12.82 174.68-10.69L174.68-10.69Q174.68-5.66 170.91-2.75 167.13 0.16 159.78 0.16L159.78 0.16Q159.07 0.16 156.69 0.08 154.31 0 153.05 0L153.05 0Q152.86 0 146.63 0.16L146.63 0.16Q146.38 0.03 146.32-0.48 146.27-0.98 146.52-1.23L146.52-1.23 147.53-1.39Q148.13-1.5 148.51-1.59 148.89-1.67 149.25-1.89 149.61-2.11 149.81-2.27 150.02-2.43 150.18-2.88 150.34-3.34 150.41-3.71 150.48-4.07 150.54-4.89 150.59-5.71 150.59-6.41 150.59-7.11 150.59-8.39ZM155.18-17.53L155.18-17.53 155.18-9.24Q155.18-4.51 156.36-3.14L156.36-3.14Q157.67-1.56 160.79-1.56L160.79-1.56Q164.78-1.56 167.17-3.49 169.57-5.41 169.57-9.41L169.57-9.41Q169.57-10.83 169.28-12.11 168.99-13.4 168.21-14.68 167.43-15.97 166.22-16.9 165-17.83 163-18.4 161.01-18.98 158.44-18.98L158.44-18.98Q156.28-18.98 155.73-18.7 155.18-18.43 155.18-17.53ZM155.18-33.61L155.18-33.61 155.18-22.23Q155.18-21.68 155.21-21.45 155.24-21.22 155.39-20.97 155.54-20.73 155.85-20.73 156.17-20.73 156.71-20.64 157.26-20.56 158.11-20.67L158.11-20.67Q162.62-20.84 164.75-22.44 166.89-24.04 166.89-27.84L166.89-27.84Q166.89-29.83 166.19-31.32 165.49-32.81 164.3-33.67 163.11-34.54 161.66-34.96 160.21-35.38 158.55-35.38L158.55-35.38Q156.71-35.38 155.98-35.05L155.98-35.05Q155.54-34.92 155.36-34.63 155.18-34.34 155.18-33.61ZM185.47-8.39L185.47-8.39 185.47-28.49Q185.47-32.62 185.07-33.74 184.68-34.86 183.01-35.05L183.01-35.05 181.2-35.27Q180.9-35.46 180.93-35.98 180.96-36.5 181.29-36.67L181.29-36.67Q186.64-37.13 193.75-37.13L193.75-37.13Q199.99-37.13 203.11-35.44L203.11-35.44Q207.75-33.03 207.75-27.62L207.75-27.62Q207.75-25.73 207.07-24.09 206.39-22.45 205.28-21.33 204.17-20.21 203.05-19.47 201.93-18.73 200.75-18.27L200.75-18.27Q200.43-17.86 201.03-16.9L201.03-16.9Q204.8-10.83 207.22-7.55 209.64-4.27 212.29-2.02L212.29-2.02Q213.91-0.6 216.15-0.44L216.15-0.44Q216.37-0.36 216.38-0.1 216.39 0.16 216.2 0.33L216.2 0.33Q215.3 0.63 213.74 0.63L213.74 0.63Q210.05 0.63 207.55-0.85 205.05-2.32 202.15-6.45L202.15-6.45Q201.41-7.49 199.47-10.57 197.53-13.64 196.68-14.9L196.68-14.9Q196.02-15.86 195.16-16.27 194.3-16.68 192.69-16.68L192.69-16.68Q190.8-16.68 190.43-16.5 190.06-16.32 190.06-15.45L190.06-15.45 190.06-8.39Q190.06-6.7 190.08-5.85 190.09-5 190.21-4.09 190.34-3.17 190.51-2.83 190.69-2.49 191.12-2.12 191.54-1.75 192.04-1.63 192.55-1.5 193.43-1.39L193.43-1.39 194.6-1.23Q194.85-1.01 194.79-0.49 194.74 0.03 194.49 0.16L194.49 0.16Q190.72 0 187.82 0L187.82 0Q184.76 0 180.82 0.16L180.82 0.16Q180.57 0.03 180.52-0.45 180.46-0.93 180.71-1.23L180.71-1.23 182.11-1.39Q182.98-1.5 183.49-1.61 183.99-1.72 184.42-2.09 184.84-2.46 185.02-2.82 185.2-3.17 185.32-4.09 185.44-5 185.46-5.85 185.47-6.7 185.47-8.39ZM190.06-33.61L190.06-33.61 190.06-20.51Q190.06-18.87 190.23-18.65L190.23-18.65Q190.5-18.38 194.11-18.38L194.11-18.38Q197.96-18.38 199.85-19.82L199.85-19.82Q202.67-22.04 202.67-26.77L202.67-26.77Q202.67-30.38 200.37-32.88 198.07-35.38 193.7-35.38L193.7-35.38Q191.89-35.38 191.18-35.25 190.47-35.11 190.27-34.78 190.06-34.45 190.06-33.61ZM240.66-5.39L240.66-5.39 238.2-12.99Q237.9-13.92 237.53-14.15 237.16-14.38 235.91-14.38L235.91-14.38 227.43-14.38Q226.36-14.38 225.97-14.15 225.57-13.92 225.3-13.04L225.3-13.04 223.36-7.16Q222.13-3.5 222.13-2.52L222.13-2.52Q222.13-1.97 222.45-1.72 222.78-1.48 223.74-1.39L223.74-1.39 225.6-1.23Q225.9-1.04 225.87-0.52 225.84 0 225.49 0.16L225.49 0.16Q224.7 0.11 219.66 0L219.66 0Q218.79 0 214.28 0.16L214.28 0.16Q214.03 0 213.98-0.51 213.92-1.01 214.17-1.23L214.17-1.23 216.03-1.39Q218.35-1.59 219.36-4.16L219.36-4.16Q219.66-4.92 220.48-6.92 221.3-8.91 222.29-11.39 223.27-13.86 224.31-16.63L224.31-16.63 230.03-31.75Q231.15-34.64 230.96-35.74L230.96-35.74Q232.46-36.18 233.88-37.84L233.88-37.84Q234.59-37.84 234.73-37.35L234.73-37.35Q235.55-34.67 237.19-29.86L237.19-29.86 244.85-7.33Q246.05-3.75 246.91-2.68 247.77-1.61 249.61-1.39L249.61-1.39 251.14-1.23Q251.41-1.01 251.38-0.52 251.36-0.03 251.14 0.16L251.14 0.16Q247.69 0 244.36 0L244.36 0Q242.74 0 237.9 0.16L237.9 0.16Q237.57 0 237.53-0.52 237.49-1.04 237.79-1.23L237.79-1.23 239.43-1.39Q241.38-1.59 241.38-2.41L241.38-2.41Q241.38-3.2 240.66-5.39ZM230.63-27.73L230.63-27.73 227.1-17.96Q226.77-17.01 226.94-16.82 227.1-16.63 228.28-16.63L228.28-16.63 235.17-16.63Q236.37-16.63 236.58-16.94 236.78-17.25 236.4-18.38L236.4-18.38 233.36-27.51Q232.49-30.16 232.08-31.04L232.08-31.04 231.97-31.04Q231.72-30.63 230.63-27.73ZM288.56-22.91L288.56-22.91 288.56-9.52Q288.56-1.18 288.72 0.27L288.72 0.27Q288.5 0.9 287.66 0.9L287.66 0.9Q286.59-0.6 280.49-7.55L280.49-7.55 267.5-22.34Q267.12-22.78 264.4-25.99 261.68-29.2 261-29.91L261-29.91 260.89-29.91Q260.61-29.07 260.61-26.28L260.61-26.28 260.61-14.05Q260.61-4.21 261.63-2.46L261.63-2.46Q262.09-1.59 264.47-1.39L264.47-1.39 266.22-1.23Q266.46-0.9 266.44-0.48 266.41-0.05 266.11 0.16L266.11 0.16Q262.34 0 259.55 0L259.55 0Q256.68 0 253.72 0.16L253.72 0.16Q253.45-0.03 253.41-0.51 253.37-0.98 253.61-1.23L253.61-1.23 255.12-1.39Q257.2-1.67 257.58-2.52L257.58-2.52Q258.32-4.4 258.32-14.05L258.32-14.05 258.32-30.24Q258.32-31.64 258.1-32.51 257.88-33.39 257.09-34.26L257.09-34.26Q256.02-35.33 253.61-35.63L253.61-35.63 252.66-35.74Q252.41-35.98 252.42-36.48 252.44-36.97 252.77-37.13L252.77-37.13Q255.12-36.97 259.11-36.97L259.11-36.97Q260.56-36.97 261.68-37.13L261.68-37.13Q262.83-34.21 271.25-24.8L271.25-24.8 276.69-18.7Q283.8-10.72 285.93-8.56L285.93-8.56 286.04-8.56Q286.26-8.83 286.26-10.91L286.26-10.91 286.26-22.91Q286.26-32.76 285.14-34.51L285.14-34.51Q284.62-35.27 281.67-35.63L281.67-35.63 280.71-35.74Q280.41-35.98 280.45-36.5 280.49-37.02 280.82-37.13L280.82-37.13Q284.68-36.97 287.44-36.97L287.44-36.97Q290.34-36.97 293.21-37.13L293.21-37.13Q293.54-36.94 293.55-36.46 293.56-35.98 293.32-35.74L293.32-35.74 292.52-35.63Q289.79-35.22 289.41-34.45L289.41-34.45Q289.24-34.13 289.12-33.63 289-33.14 288.91-32.47 288.83-31.8 288.76-31.16 288.7-30.52 288.65-29.64 288.61-28.77 288.6-28.14 288.59-27.51 288.57-26.58 288.56-25.65 288.56-25.2 288.56-24.75 288.56-23.91 288.56-23.08 288.56-22.91Z" transform="translate(-2.569999933242798, 38.79083251953125)"/>
          </g>
        </g>
      </g>
      <g data-gra="path-slogan" fill-rule="" class="tp-slogan" transform="translate(5,46.690834045410156)">
        <rect x="0" height="1" y="4.34499979019165" width="122.27447509765625"/>
        <rect height="1" y="4.34499979019165" width="122.27447509765625" x="158.70590209960938"/>
        <g transform="translate(125.27447509765625,0)">
          <g transform="scale(1)">
            <path d="M1.79-2.13L1.79-2.13L1.79-7.11Q1.79-7.54 1.79-7.76Q1.78-7.98 1.75-8.21Q1.72-8.45 1.67-8.54Q1.63-8.64 1.52-8.74Q1.42-8.83 1.29-8.86Q1.16-8.89 0.94-8.91L0.94-8.91L0.59-8.93Q0.53-8.98 0.54-9.11Q0.55-9.25 0.62-9.28L0.62-9.28Q1.66-9.24 2.38-9.24L2.38-9.24Q3.07-9.24 4.12-9.28L4.12-9.28Q4.18-9.25 4.19-9.11Q4.20-8.98 4.14-8.93L4.14-8.93L3.79-8.91Q3.58-8.89 3.44-8.86Q3.31-8.83 3.21-8.74Q3.10-8.64 3.06-8.54Q3.01-8.45 2.98-8.21Q2.95-7.98 2.94-7.76Q2.94-7.54 2.94-7.11L2.94-7.11L2.94-2.13Q2.94-1.80 2.94-1.63Q2.95-1.45 2.96-1.24Q2.97-1.03 2.99-0.93Q3.01-0.83 3.06-0.72Q3.10-0.60 3.16-0.56Q3.21-0.51 3.31-0.46Q3.41-0.41 3.52-0.39Q3.63-0.37 3.79-0.35L3.79-0.35L4.14-0.31Q4.20-0.27 4.19-0.13Q4.18 0.01 4.12 0.04L4.12 0.04Q3.07 0 2.38 0L2.38 0Q1.66 0 0.62 0.04L0.62 0.04Q0.55 0.01 0.54-0.12Q0.53-0.25 0.59-0.31L0.59-0.31L0.94-0.35Q1.10-0.37 1.21-0.39Q1.32-0.41 1.42-0.46Q1.52-0.51 1.57-0.56Q1.63-0.60 1.67-0.72Q1.72-0.83 1.74-0.93Q1.76-1.03 1.77-1.24Q1.78-1.45 1.79-1.63Q1.79-1.80 1.79-2.13ZM15.05-5.73L15.05-5.73L15.05-2.38Q15.05-0.29 15.10 0.07L15.10 0.07Q15.04 0.23 14.83 0.23L14.83 0.23Q14.56-0.15 13.04-1.89L13.04-1.89L9.79-5.58Q9.70-5.69 9.02-6.50Q8.33-7.30 8.16-7.48L8.16-7.48L8.14-7.48Q8.07-7.27 8.07-6.57L8.07-6.57L8.07-3.51Q8.07-1.05 8.32-0.62L8.32-0.62Q8.44-0.40 9.03-0.35L9.03-0.35L9.47-0.31Q9.53-0.23 9.52-0.12Q9.52-0.01 9.44 0.04L9.44 0.04Q8.50 0 7.80 0L7.80 0Q7.08 0 6.35 0.04L6.35 0.04Q6.28-0.01 6.27-0.13Q6.26-0.25 6.32-0.31L6.32-0.31L6.69-0.35Q7.21-0.42 7.31-0.63L7.31-0.63Q7.49-1.10 7.49-3.51L7.49-3.51L7.49-7.56Q7.49-7.91 7.44-8.13Q7.38-8.35 7.19-8.57L7.19-8.57Q6.92-8.83 6.32-8.91L6.32-8.91L6.08-8.93Q6.02-9.00 6.02-9.12Q6.02-9.24 6.11-9.28L6.11-9.28Q6.69-9.24 7.69-9.24L7.69-9.24Q8.05-9.24 8.33-9.28L8.33-9.28Q8.62-8.55 10.73-6.20L10.73-6.20L12.09-4.68Q13.87-2.68 14.40-2.14L14.40-2.14L14.43-2.14Q14.48-2.21 14.48-2.73L14.48-2.73L14.48-5.73Q14.48-8.19 14.20-8.63L14.20-8.63Q14.07-8.82 13.33-8.91L13.33-8.91L13.09-8.93Q13.02-9.00 13.03-9.13Q13.04-9.26 13.12-9.28L13.12-9.28Q14.08-9.24 14.77-9.24L14.77-9.24Q15.50-9.24 16.22-9.28L16.22-9.28Q16.30-9.24 16.30-9.12Q16.31-9.00 16.24-8.93L16.24-8.93L16.05-8.91Q15.36-8.80 15.27-8.61L15.27-8.61Q15.23-8.53 15.19-8.41Q15.16-8.29 15.14-8.12Q15.12-7.95 15.11-7.79Q15.09-7.63 15.08-7.41Q15.07-7.19 15.06-7.03Q15.06-6.88 15.06-6.64Q15.05-6.41 15.05-6.30Q15.05-6.19 15.05-5.98Q15.05-5.77 15.05-5.73ZM18.30-4.57L18.30-4.57Q18.30-5.71 18.78-6.67Q19.25-7.64 20.07-8.27L20.07-8.27Q21.59-9.46 23.85-9.46L23.85-9.46Q24.41-9.46 25.12-9.37Q25.83-9.27 26.33-9.13L26.33-9.13Q26.61-9.06 26.72-9.07L26.72-9.07Q26.75-8.31 26.92-7.01L26.92-7.01Q26.87-6.95 26.74-6.94Q26.60-6.92 26.53-6.99L26.53-6.99Q26.08-9.03 23.66-9.03L23.66-9.03Q23.01-9.03 22.43-8.87Q21.84-8.71 21.35-8.36Q20.85-8.02 20.48-7.52Q20.12-7.03 19.91-6.32Q19.71-5.62 19.71-4.77L19.71-4.77Q19.71-3.70 20.03-2.82Q20.35-1.95 20.92-1.38Q21.49-0.82 22.24-0.52Q22.99-0.21 23.86-0.21L23.86-0.21Q24.38-0.21 24.83-0.35Q25.28-0.48 25.58-0.68Q25.88-0.88 26.14-1.16Q26.39-1.44 26.53-1.69Q26.68-1.94 26.79-2.21L26.79-2.21Q26.86-2.27 26.98-2.25Q27.11-2.22 27.15-2.15L27.15-2.15Q27.08-1.64 26.87-1.05Q26.65-0.46 26.48-0.24L26.48-0.24Q26.33-0.22 25.99-0.10L25.99-0.10Q25.70 0.01 25.04 0.12Q24.38 0.23 23.78 0.23L23.78 0.23Q21.69 0.23 20.29-0.71L20.29-0.71Q19.39-1.33 18.85-2.31Q18.30-3.28 18.30-4.57ZM30.18 0.20L30.18 0.20Q29.87 0.20 29.63-0.02Q29.39-0.23 29.39-0.57L29.39-0.57Q29.39-0.93 29.62-1.17Q29.84-1.40 30.18-1.40L30.18-1.40Q30.53-1.40 30.75-1.16Q30.97-0.92 30.97-0.57L30.97-0.57Q30.97-0.23 30.75-0.02Q30.54 0.20 30.18 0.20Z" transform="translate(-0.5375532670454544, 9.4609375)"/>
          </g>
        </g>
      </g>
    </g>
  </mask>
  <rect width="320.98" height="86.39" style="stroke: rgb(0, 0, 0); fill: rgb(27, 27, 27);" transform="matrix(0.9999999999999999, 0, 0, 0.9999999999999999, 0, 0)"/>
  <g data-v-0dd9719b="" fill="#FFFFFF" class="pmspacesvg" transform="matrix(0.9999989867210387, 0, 0, 1.000095009803772, 0, 0.000025000001933506155)" style="">
    <g fill="#FFFFFF">
      <g mask="url(#5c40c3f7-96e0-4d53-be2c-e0056d4a65a2)" fill="#FFFFFF">
        <g fill="#FFFFFF">
          <rect data-gra="graph-name-bg" stroke-width="2px" class="i-icon-bg" x="0" y="0" width="320.9803771972656" height="86.38177490234375" fill="#FFFFFF"/>
          <rect data-gra="graph-name-border" stroke="#000000" stroke-width="2px" x="5" y="5" fill-opacity="0" width="310.9803771972656" height="76.38177490234375" fill="#FFFFFF"/>
        </g>
        <g transform="translate(15,15)" fill="#FFFFFF">
          <g data-gra="path-name" fill-rule="" class="tp-name" fill="#000000" transform="translate(0,0)">
            <g transform="scale(1)">
              <g>
                <path d="M36.29-8.86L36.29-8.86 36.29-5.71Q36.29-2.24 37.63-1.72L37.63-1.72Q37.76-1.61 37.75-1.39 37.73-1.18 37.57-1.07L37.57-1.07Q36.86-1.07 34.84-0.55L34.84-0.55Q29.39 0.9 24.8 0.9L24.8 0.9Q13.89 0.9 7.74-5.33L7.74-5.33Q2.57-10.5 2.57-18.02L2.57-18.02Q2.57-21.71 3.84-25.17 5.11-28.63 7.63-31.31L7.63-31.31Q13.89-37.84 25.38-37.84L25.38-37.84Q28.9-37.84 32.48-37.02L32.48-37.02Q35.44-36.42 35.96-36.5L35.96-36.5Q35.96-34.18 36.8-28.38L36.8-28.38Q36.7-28.05 36.11-28.01 35.52-27.97 35.27-28.22L35.27-28.22Q34.15-32.54 31.25-34.36 28.36-36.18 23.79-36.18L23.79-36.18Q20.62-36.18 18.01-35.3 15.39-34.43 13.59-32.92 11.79-31.42 10.55-29.35 9.32-27.29 8.75-24.95 8.18-22.61 8.18-20.04L8.18-20.04Q8.18-16.79 8.83-13.92 9.49-11.05 10.86-8.64 12.22-6.23 14.19-4.51 16.16-2.79 18.91-1.82 21.66-0.85 24.96-0.85L24.96-0.85Q27.48-0.85 29.07-1.3 30.65-1.75 31.14-2.52L31.14-2.52Q31.69-3.28 31.69-5.71L31.69-5.71 31.69-7.96Q31.69-9.3 31.68-9.98 31.66-10.66 31.51-11.35 31.36-12.03 31.19-12.29 31.01-12.55 30.53-12.82 30.05-13.1 29.53-13.18 29.01-13.26 28.05-13.37L28.05-13.37 25.59-13.67Q25.27-13.84 25.28-14.38 25.29-14.93 25.59-15.07L25.59-15.07Q28-14.9 33.61-14.9L33.61-14.9Q36.75-14.9 39.54-15.07L39.54-15.07Q39.84-14.9 39.85-14.41 39.87-13.92 39.59-13.67L39.59-13.67 38.69-13.56Q38.01-13.48 37.54-13.22 37.08-12.96 36.83-12.63 36.59-12.3 36.46-11.63 36.34-10.96 36.31-10.43 36.29-9.9 36.29-8.86ZM76.69-16.46L76.69-16.46 76.69-22.91Q76.69-32.65 75.62-34.51L75.62-34.51Q75.05-35.52 72.83-35.68L72.83-35.68 71.44-35.79Q71.19-36.09 71.25-36.53 71.3-36.97 71.55-37.13L71.55-37.13Q74.75-36.97 77.92-36.97L77.92-36.97Q80.76-36.97 83.8-37.13L83.8-37.13Q84.1-36.94 84.11-36.49 84.13-36.04 83.91-35.79L83.91-35.79 82.57-35.68Q81.53-35.6 80.78-35.23 80.02-34.86 79.78-34.32L79.78-34.32Q78.98-32.46 78.98-22.91L78.98-22.91 78.98-16.57Q78.98-7.38 75.07-3.2L75.07-3.2Q73.3-1.26 70.41-0.18 67.53 0.9 64.36 0.9L64.36 0.9Q57.49 0.9 53.91-2.19L53.91-2.19Q51.67-4.05 50.6-7.23 49.54-10.42 49.54-15.39L49.54-15.39 49.54-28.63Q49.54-29.91 49.52-30.61 49.51-31.31 49.47-32.14 49.43-32.98 49.34-33.37 49.26-33.77 49.08-34.23 48.91-34.7 48.67-34.88 48.44-35.05 48.07-35.26 47.7-35.46 47.25-35.55 46.8-35.63 46.17-35.68L46.17-35.68 44.78-35.79Q44.53-35.96 44.59-36.48 44.64-37 44.89-37.13L44.89-37.13Q49.07-36.97 51.83-36.97L51.83-36.97Q54.62-36.97 58.72-37.13L58.72-37.13Q58.97-37 59.02-36.48 59.08-35.96 58.83-35.79L58.83-35.79 57.49-35.68Q56.86-35.63 56.41-35.55 55.96-35.46 55.59-35.26 55.22-35.05 54.99-34.88 54.76-34.7 54.58-34.23 54.4-33.77 54.32-33.37 54.24-32.98 54.2-32.14 54.16-31.31 54.14-30.61 54.13-29.91 54.13-28.63L54.13-28.63 54.13-16.52Q54.13-13.02 54.72-10.36 55.3-7.71 56.59-5.69 57.88-3.66 60.1-2.61 62.33-1.56 65.48-1.56L65.48-1.56Q68.43-1.56 70.63-2.68 72.83-3.8 74.13-5.84 75.43-7.88 76.06-10.53 76.69-13.18 76.69-16.46ZM106.18-33.33L106.18-33.33 106.18-8.39Q106.18-6.67 106.19-5.82 106.21-4.98 106.33-4.05 106.45-3.12 106.63-2.76 106.81-2.41 107.22-2.05 107.63-1.7 108.15-1.59 108.67-1.48 109.54-1.39L109.54-1.39 111.32-1.23Q111.57-1.07 111.51-0.52 111.46 0.03 111.21 0.16L111.21 0.16Q106.4 0 103.88 0L103.88 0Q101.48 0 96.09 0.16L96.09 0.16Q95.82 0.03 95.8-0.49 95.79-1.01 96.09-1.23L96.09-1.23 98.11-1.39Q99.13-1.48 99.71-1.68 100.3-1.89 100.71-2.26 101.12-2.63 101.29-3.5 101.45-4.38 101.52-5.41 101.59-6.45 101.59-8.39L101.59-8.39 101.59-33.44Q101.59-34.73 101.37-34.97 101.15-35.22 99.89-35.22L99.89-35.22 96.83-35.22Q91.44-35.22 89.94-33.82L89.94-33.82Q89.31-33.25 88.82-32.54 88.32-31.83 88.08-31.36 87.83-30.9 87.42-29.97L87.42-29.97Q87.09-29.72 86.6-29.87 86.11-30.02 85.95-30.35L85.95-30.35Q87.29-34.13 88.08-38.69L88.08-38.69Q88.21-38.77 88.61-38.79 89.01-38.8 89.14-38.69L89.14-38.69Q89.23-38.2 89.51-37.86 89.8-37.52 90.12-37.34 90.43-37.16 91.1-37.08 91.77-37 92.21-36.98 92.64-36.97 93.57-36.97L93.57-36.97Q93.68-36.97 93.75-36.97 93.82-36.97 93.9-36.97L93.9-36.97 116.6-36.97Q118.92-36.97 119.62-37.21 120.32-37.46 120.95-38.53L120.95-38.53Q121.14-38.61 121.51-38.57 121.88-38.53 121.96-38.36L121.96-38.36Q121.49-36.7 121.23-33.93 120.97-31.17 121.11-29.86L121.11-29.86Q120.95-29.53 120.4-29.5 119.85-29.48 119.66-29.72L119.66-29.72Q119.28-33.09 118.27-33.82L118.27-33.82Q116.41-35.22 111.76-35.22L111.76-35.22 107.79-35.22Q106.56-35.22 106.37-34.99 106.18-34.75 106.18-33.33ZM130.67-8.5L130.67-8.5 130.67-28.44Q130.67-30.16 130.65-31.04 130.64-31.91 130.52-32.85 130.39-33.8 130.2-34.18 130.01-34.56 129.6-34.95 129.19-35.33 128.66-35.44 128.13-35.55 127.25-35.63L127.25-35.63 125.86-35.74Q125.61-35.9 125.66-36.45 125.72-37 125.96-37.13L125.96-37.13Q130.15-36.97 133.02-36.97L133.02-36.97Q135.78-36.97 139.96-37.13L139.96-37.13Q140.21-37 140.27-36.45 140.32-35.9 140.07-35.74L140.07-35.74 138.68-35.63Q137.8-35.55 137.27-35.44 136.74-35.33 136.33-34.95 135.92-34.56 135.73-34.18 135.54-33.8 135.41-32.85 135.29-31.91 135.28-31.04 135.26-30.16 135.26-28.44L135.26-28.44 135.26-8.5Q135.26-7.22 135.28-6.51 135.29-5.8 135.34-4.96 135.4-4.13 135.47-3.73 135.54-3.34 135.73-2.87 135.92-2.41 136.14-2.23 136.36-2.05 136.75-1.85 137.15-1.64 137.59-1.56 138.02-1.48 138.68-1.39L138.68-1.39 140.07-1.23Q140.32-1.07 140.27-0.52 140.21 0.03 139.96 0.16L139.96 0.16Q135.78 0 133.02 0L133.02 0Q130.15 0 125.96 0.16L125.96 0.16Q125.72 0.03 125.66-0.48 125.61-0.98 125.86-1.23L125.86-1.23 127.25-1.39Q127.91-1.48 128.34-1.56 128.78-1.64 129.18-1.85 129.57-2.05 129.79-2.23 130.01-2.41 130.2-2.87 130.39-3.34 130.46-3.73 130.53-4.13 130.59-4.96 130.64-5.8 130.65-6.51 130.67-7.22 130.67-8.5ZM150.59-8.39L150.59-8.39 150.59-29.67Q150.59-32.92 150.13-33.93 149.66-34.95 147.86-35.11L147.86-35.11 146.05-35.27Q145.72-35.52 145.75-36.01 145.78-36.5 146.11-36.67L146.11-36.67Q151.27-37.13 158.16-37.13L158.16-37.13Q164.45-37.13 167.57-35.55L167.57-35.55Q171.81-33.47 171.81-28.55L171.81-28.55Q171.81-25.73 170.35-23.95 168.88-22.18 166.09-20.89L166.09-20.89Q166.09-20.23 167.16-20.04L167.16-20.04Q168.39-19.82 169.63-19.17 170.88-18.51 172.04-17.43 173.2-16.35 173.94-14.59 174.68-12.82 174.68-10.69L174.68-10.69Q174.68-5.66 170.91-2.75 167.13 0.16 159.78 0.16L159.78 0.16Q159.07 0.16 156.69 0.08 154.31 0 153.05 0L153.05 0Q152.86 0 146.63 0.16L146.63 0.16Q146.38 0.03 146.32-0.48 146.27-0.98 146.52-1.23L146.52-1.23 147.53-1.39Q148.13-1.5 148.51-1.59 148.89-1.67 149.25-1.89 149.61-2.11 149.81-2.27 150.02-2.43 150.18-2.88 150.34-3.34 150.41-3.71 150.48-4.07 150.54-4.89 150.59-5.71 150.59-6.41 150.59-7.11 150.59-8.39ZM155.18-17.53L155.18-17.53 155.18-9.24Q155.18-4.51 156.36-3.14L156.36-3.14Q157.67-1.56 160.79-1.56L160.79-1.56Q164.78-1.56 167.17-3.49 169.57-5.41 169.57-9.41L169.57-9.41Q169.57-10.83 169.28-12.11 168.99-13.4 168.21-14.68 167.43-15.97 166.22-16.9 165-17.83 163-18.4 161.01-18.98 158.44-18.98L158.44-18.98Q156.28-18.98 155.73-18.7 155.18-18.43 155.18-17.53ZM155.18-33.61L155.18-33.61 155.18-22.23Q155.18-21.68 155.21-21.45 155.24-21.22 155.39-20.97 155.54-20.73 155.85-20.73 156.17-20.73 156.71-20.64 157.26-20.56 158.11-20.67L158.11-20.67Q162.62-20.84 164.75-22.44 166.89-24.04 166.89-27.84L166.89-27.84Q166.89-29.83 166.19-31.32 165.49-32.81 164.3-33.67 163.11-34.54 161.66-34.96 160.21-35.38 158.55-35.38L158.55-35.38Q156.71-35.38 155.98-35.05L155.98-35.05Q155.54-34.92 155.36-34.63 155.18-34.34 155.18-33.61ZM185.47-8.39L185.47-8.39 185.47-28.49Q185.47-32.62 185.07-33.74 184.68-34.86 183.01-35.05L183.01-35.05 181.2-35.27Q180.9-35.46 180.93-35.98 180.96-36.5 181.29-36.67L181.29-36.67Q186.64-37.13 193.75-37.13L193.75-37.13Q199.99-37.13 203.11-35.44L203.11-35.44Q207.75-33.03 207.75-27.62L207.75-27.62Q207.75-25.73 207.07-24.09 206.39-22.45 205.28-21.33 204.17-20.21 203.05-19.47 201.93-18.73 200.75-18.27L200.75-18.27Q200.43-17.86 201.03-16.9L201.03-16.9Q204.8-10.83 207.22-7.55 209.64-4.27 212.29-2.02L212.29-2.02Q213.91-0.6 216.15-0.44L216.15-0.44Q216.37-0.36 216.38-0.1 216.39 0.16 216.2 0.33L216.2 0.33Q215.3 0.63 213.74 0.63L213.74 0.63Q210.05 0.63 207.55-0.85 205.05-2.32 202.15-6.45L202.15-6.45Q201.41-7.49 199.47-10.57 197.53-13.64 196.68-14.9L196.68-14.9Q196.02-15.86 195.16-16.27 194.3-16.68 192.69-16.68L192.69-16.68Q190.8-16.68 190.43-16.5 190.06-16.32 190.06-15.45L190.06-15.45 190.06-8.39Q190.06-6.7 190.08-5.85 190.09-5 190.21-4.09 190.34-3.17 190.51-2.83 190.69-2.49 191.12-2.12 191.54-1.75 192.04-1.63 192.55-1.5 193.43-1.39L193.43-1.39 194.6-1.23Q194.85-1.01 194.79-0.49 194.74 0.03 194.49 0.16L194.49 0.16Q190.72 0 187.82 0L187.82 0Q184.76 0 180.82 0.16L180.82 0.16Q180.57 0.03 180.52-0.45 180.46-0.93 180.71-1.23L180.71-1.23 182.11-1.39Q182.98-1.5 183.49-1.61 183.99-1.72 184.42-2.09 184.84-2.46 185.02-2.82 185.2-3.17 185.32-4.09 185.44-5 185.46-5.85 185.47-6.7 185.47-8.39ZM190.06-33.61L190.06-33.61 190.06-20.51Q190.06-18.87 190.23-18.65L190.23-18.65Q190.5-18.38 194.11-18.38L194.11-18.38Q197.96-18.38 199.85-19.82L199.85-19.82Q202.67-22.04 202.67-26.77L202.67-26.77Q202.67-30.38 200.37-32.88 198.07-35.38 193.7-35.38L193.7-35.38Q191.89-35.38 191.18-35.25 190.47-35.11 190.27-34.78 190.06-34.45 190.06-33.61ZM240.66-5.39L240.66-5.39 238.2-12.99Q237.9-13.92 237.53-14.15 237.16-14.38 235.91-14.38L235.91-14.38 227.43-14.38Q226.36-14.38 225.97-14.15 225.57-13.92 225.3-13.04L225.3-13.04 223.36-7.16Q222.13-3.5 222.13-2.52L222.13-2.52Q222.13-1.97 222.45-1.72 222.78-1.48 223.74-1.39L223.74-1.39 225.6-1.23Q225.9-1.04 225.87-0.52 225.84 0 225.49 0.16L225.49 0.16Q224.7 0.11 219.66 0L219.66 0Q218.79 0 214.28 0.16L214.28 0.16Q214.03 0 213.98-0.51 213.92-1.01 214.17-1.23L214.17-1.23 216.03-1.39Q218.35-1.59 219.36-4.16L219.36-4.16Q219.66-4.92 220.48-6.92 221.3-8.91 222.29-11.39 223.27-13.86 224.31-16.63L224.31-16.63 230.03-31.75Q231.15-34.64 230.96-35.74L230.96-35.74Q232.46-36.18 233.88-37.84L233.88-37.84Q234.59-37.84 234.73-37.35L234.73-37.35Q235.55-34.67 237.19-29.86L237.19-29.86 244.85-7.33Q246.05-3.75 246.91-2.68 247.77-1.61 249.61-1.39L249.61-1.39 251.14-1.23Q251.41-1.01 251.38-0.52 251.36-0.03 251.14 0.16L251.14 0.16Q247.69 0 244.36 0L244.36 0Q242.74 0 237.9 0.16L237.9 0.16Q237.57 0 237.53-0.52 237.49-1.04 237.79-1.23L237.79-1.23 239.43-1.39Q241.38-1.59 241.38-2.41L241.38-2.41Q241.38-3.2 240.66-5.39ZM230.63-27.73L230.63-27.73 227.1-17.96Q226.77-17.01 226.94-16.82 227.1-16.63 228.28-16.63L228.28-16.63 235.17-16.63Q236.37-16.63 236.58-16.94 236.78-17.25 236.4-18.38L236.4-18.38 233.36-27.51Q232.49-30.16 232.08-31.04L232.08-31.04 231.97-31.04Q231.72-30.63 230.63-27.73ZM288.56-22.91L288.56-22.91 288.56-9.52Q288.56-1.18 288.72 0.27L288.72 0.27Q288.5 0.9 287.66 0.9L287.66 0.9Q286.59-0.6 280.49-7.55L280.49-7.55 267.5-22.34Q267.12-22.78 264.4-25.99 261.68-29.2 261-29.91L261-29.91 260.89-29.91Q260.61-29.07 260.61-26.28L260.61-26.28 260.61-14.05Q260.61-4.21 261.63-2.46L261.63-2.46Q262.09-1.59 264.47-1.39L264.47-1.39 266.22-1.23Q266.46-0.9 266.44-0.48 266.41-0.05 266.11 0.16L266.11 0.16Q262.34 0 259.55 0L259.55 0Q256.68 0 253.72 0.16L253.72 0.16Q253.45-0.03 253.41-0.51 253.37-0.98 253.61-1.23L253.61-1.23 255.12-1.39Q257.2-1.67 257.58-2.52L257.58-2.52Q258.32-4.4 258.32-14.05L258.32-14.05 258.32-30.24Q258.32-31.64 258.1-32.51 257.88-33.39 257.09-34.26L257.09-34.26Q256.02-35.33 253.61-35.63L253.61-35.63 252.66-35.74Q252.41-35.98 252.42-36.48 252.44-36.97 252.77-37.13L252.77-37.13Q255.12-36.97 259.11-36.97L259.11-36.97Q260.56-36.97 261.68-37.13L261.68-37.13Q262.83-34.21 271.25-24.8L271.25-24.8 276.69-18.7Q283.8-10.72 285.93-8.56L285.93-8.56 286.04-8.56Q286.26-8.83 286.26-10.91L286.26-10.91 286.26-22.91Q286.26-32.76 285.14-34.51L285.14-34.51Q284.62-35.27 281.67-35.63L281.67-35.63 280.71-35.74Q280.41-35.98 280.45-36.5 280.49-37.02 280.82-37.13L280.82-37.13Q284.68-36.97 287.44-36.97L287.44-36.97Q290.34-36.97 293.21-37.13L293.21-37.13Q293.54-36.94 293.55-36.46 293.56-35.98 293.32-35.74L293.32-35.74 292.52-35.63Q289.79-35.22 289.41-34.45L289.41-34.45Q289.24-34.13 289.12-33.63 289-33.14 288.91-32.47 288.83-31.8 288.76-31.16 288.7-30.52 288.65-29.64 288.61-28.77 288.6-28.14 288.59-27.51 288.57-26.58 288.56-25.65 288.56-25.2 288.56-24.75 288.56-23.91 288.56-23.08 288.56-22.91Z" transform="translate(-2.569999933242798, 38.79083251953125)"/>
              </g>
            </g>
          </g>
          <g data-gra="path-slogan" fill-rule="" class="tp-slogan" fill="#000000" transform="translate(5,46.690834045410156)">
            <rect x="0" height="1" y="4.34499979019165" width="122.27447509765625"/>
            <rect height="1" y="4.34499979019165" width="122.27447509765625" x="158.70590209960938"/>
            <g transform="translate(125.27447509765625,0)">
              <g transform="scale(1)">
                <path d="M1.79-2.13L1.79-2.13L1.79-7.11Q1.79-7.54 1.79-7.76Q1.78-7.98 1.75-8.21Q1.72-8.45 1.67-8.54Q1.63-8.64 1.52-8.74Q1.42-8.83 1.29-8.86Q1.16-8.89 0.94-8.91L0.94-8.91L0.59-8.93Q0.53-8.98 0.54-9.11Q0.55-9.25 0.62-9.28L0.62-9.28Q1.66-9.24 2.38-9.24L2.38-9.24Q3.07-9.24 4.12-9.28L4.12-9.28Q4.18-9.25 4.19-9.11Q4.20-8.98 4.14-8.93L4.14-8.93L3.79-8.91Q3.58-8.89 3.44-8.86Q3.31-8.83 3.21-8.74Q3.10-8.64 3.06-8.54Q3.01-8.45 2.98-8.21Q2.95-7.98 2.94-7.76Q2.94-7.54 2.94-7.11L2.94-7.11L2.94-2.13Q2.94-1.80 2.94-1.63Q2.95-1.45 2.96-1.24Q2.97-1.03 2.99-0.93Q3.01-0.83 3.06-0.72Q3.10-0.60 3.16-0.56Q3.21-0.51 3.31-0.46Q3.41-0.41 3.52-0.39Q3.63-0.37 3.79-0.35L3.79-0.35L4.14-0.31Q4.20-0.27 4.19-0.13Q4.18 0.01 4.12 0.04L4.12 0.04Q3.07 0 2.38 0L2.38 0Q1.66 0 0.62 0.04L0.62 0.04Q0.55 0.01 0.54-0.12Q0.53-0.25 0.59-0.31L0.59-0.31L0.94-0.35Q1.10-0.37 1.21-0.39Q1.32-0.41 1.42-0.46Q1.52-0.51 1.57-0.56Q1.63-0.60 1.67-0.72Q1.72-0.83 1.74-0.93Q1.76-1.03 1.77-1.24Q1.78-1.45 1.79-1.63Q1.79-1.80 1.79-2.13ZM15.05-5.73L15.05-5.73L15.05-2.38Q15.05-0.29 15.10 0.07L15.10 0.07Q15.04 0.23 14.83 0.23L14.83 0.23Q14.56-0.15 13.04-1.89L13.04-1.89L9.79-5.58Q9.70-5.69 9.02-6.50Q8.33-7.30 8.16-7.48L8.16-7.48L8.14-7.48Q8.07-7.27 8.07-6.57L8.07-6.57L8.07-3.51Q8.07-1.05 8.32-0.62L8.32-0.62Q8.44-0.40 9.03-0.35L9.03-0.35L9.47-0.31Q9.53-0.23 9.52-0.12Q9.52-0.01 9.44 0.04L9.44 0.04Q8.50 0 7.80 0L7.80 0Q7.08 0 6.35 0.04L6.35 0.04Q6.28-0.01 6.27-0.13Q6.26-0.25 6.32-0.31L6.32-0.31L6.69-0.35Q7.21-0.42 7.31-0.63L7.31-0.63Q7.49-1.10 7.49-3.51L7.49-3.51L7.49-7.56Q7.49-7.91 7.44-8.13Q7.38-8.35 7.19-8.57L7.19-8.57Q6.92-8.83 6.32-8.91L6.32-8.91L6.08-8.93Q6.02-9.00 6.02-9.12Q6.02-9.24 6.11-9.28L6.11-9.28Q6.69-9.24 7.69-9.24L7.69-9.24Q8.05-9.24 8.33-9.28L8.33-9.28Q8.62-8.55 10.73-6.20L10.73-6.20L12.09-4.68Q13.87-2.68 14.40-2.14L14.40-2.14L14.43-2.14Q14.48-2.21 14.48-2.73L14.48-2.73L14.48-5.73Q14.48-8.19 14.20-8.63L14.20-8.63Q14.07-8.82 13.33-8.91L13.33-8.91L13.09-8.93Q13.02-9.00 13.03-9.13Q13.04-9.26 13.12-9.28L13.12-9.28Q14.08-9.24 14.77-9.24L14.77-9.24Q15.50-9.24 16.22-9.28L16.22-9.28Q16.30-9.24 16.30-9.12Q16.31-9.00 16.24-8.93L16.24-8.93L16.05-8.91Q15.36-8.80 15.27-8.61L15.27-8.61Q15.23-8.53 15.19-8.41Q15.16-8.29 15.14-8.12Q15.12-7.95 15.11-7.79Q15.09-7.63 15.08-7.41Q15.07-7.19 15.06-7.03Q15.06-6.88 15.06-6.64Q15.05-6.41 15.05-6.30Q15.05-6.19 15.05-5.98Q15.05-5.77 15.05-5.73ZM18.30-4.57L18.30-4.57Q18.30-5.71 18.78-6.67Q19.25-7.64 20.07-8.27L20.07-8.27Q21.59-9.46 23.85-9.46L23.85-9.46Q24.41-9.46 25.12-9.37Q25.83-9.27 26.33-9.13L26.33-9.13Q26.61-9.06 26.72-9.07L26.72-9.07Q26.75-8.31 26.92-7.01L26.92-7.01Q26.87-6.95 26.74-6.94Q26.60-6.92 26.53-6.99L26.53-6.99Q26.08-9.03 23.66-9.03L23.66-9.03Q23.01-9.03 22.43-8.87Q21.84-8.71 21.35-8.36Q20.85-8.02 20.48-7.52Q20.12-7.03 19.91-6.32Q19.71-5.62 19.71-4.77L19.71-4.77Q19.71-3.70 20.03-2.82Q20.35-1.95 20.92-1.38Q21.49-0.82 22.24-0.52Q22.99-0.21 23.86-0.21L23.86-0.21Q24.38-0.21 24.83-0.35Q25.28-0.48 25.58-0.68Q25.88-0.88 26.14-1.16Q26.39-1.44 26.53-1.69Q26.68-1.94 26.79-2.21L26.79-2.21Q26.86-2.27 26.98-2.25Q27.11-2.22 27.15-2.15L27.15-2.15Q27.08-1.64 26.87-1.05Q26.65-0.46 26.48-0.24L26.48-0.24Q26.33-0.22 25.99-0.10L25.99-0.10Q25.70 0.01 25.04 0.12Q24.38 0.23 23.78 0.23L23.78 0.23Q21.69 0.23 20.29-0.71L20.29-0.71Q19.39-1.33 18.85-2.31Q18.30-3.28 18.30-4.57ZM30.18 0.20L30.18 0.20Q29.87 0.20 29.63-0.02Q29.39-0.23 29.39-0.57L29.39-0.57Q29.39-0.93 29.62-1.17Q29.84-1.40 30.18-1.40L30.18-1.40Q30.53-1.40 30.75-1.16Q30.97-0.92 30.97-0.57L30.97-0.57Q30.97-0.23 30.75-0.02Q30.54 0.20 30.18 0.20Z" transform="translate(-0.5375532670454544, 9.4609375)"/>
              </g>
            </g>
          </g>
        </g>
      </g>
    </g>
  </g>
</svg>